<svg id="Layer_1" data-name="Layer 1" xmlns="http://www.w3.org/2000/svg" xmlns:xlink="http://www.w3.org/1999/xlink" viewBox="0 0 1468 1156"><defs><style>.cls-1{fill:#5b5b5b;}.cls-2{clip-path:url(#clip-path);}.cls-16,.cls-18,.cls-19,.cls-20,.cls-21,.cls-22,.cls-3{fill:#fff;}.cls-10,.cls-11,.cls-3,.cls-4,.cls-5{stroke:#000;}.cls-10,.cls-11,.cls-12,.cls-13,.cls-14,.cls-16,.cls-19,.cls-23,.cls-3,.cls-4,.cls-5{stroke-miterlimit:10;}.cls-10,.cls-16,.cls-19,.cls-3,.cls-4,.cls-5{stroke-width:2px;}.cls-4,.cls-9{fill:#ffce00;}.cls-5{fill:#e6e6e6;}.cls-6{fill:#f4ddc3;}.cls-7{fill:#603813;}.cls-8{fill:#ff0;}.cls-10,.cls-11,.cls-12,.cls-13,.cls-14,.cls-23{fill:none;}.cls-11,.cls-12,.cls-13{stroke-width:7px;}.cls-12{stroke:#009245;}.cls-13{stroke:red;}.cls-14,.cls-23{stroke:#fff;}.cls-14{stroke-width:5px;}.cls-15{fill:lime;}.cls-15,.cls-16{opacity:0.7;}.cls-16,.cls-19{stroke:lime;}.cls-17{fill:#3989c9;}.cls-18{font-size:38.62px;}.cls-18,.cls-21,.cls-22{font-family:OpenSans-Bold, Open Sans;font-weight:700;}.cls-20{font-size:28px;font-family:OpenSans-SemiBold, Open Sans;font-weight:600;}.cls-21{font-size:24.91px;}.cls-22{font-size:65px;}.cls-23{stroke-width:1.5px;}</style><clipPath id="clip-path"><rect class="cls-1" width="1468" height="1156"/></clipPath></defs><rect class="cls-1" width="1468" height="1156"/><g class="cls-2"><image width="897" height="705" transform="translate(238 225)" xlink:href="Adapter%20Bot.jpg"/></g><rect class="cls-3" x="970" y="549" width="73" height="313"/><circle class="cls-4" cx="1006.5" cy="756.33" r="10.72"/><circle class="cls-4" cx="1006.5" cy="829.33" r="10.72"/><circle class="cls-4" cx="1006.5" cy="683.67" r="10.72"/><circle class="cls-4" cx="1006.5" cy="615" r="10.72"/><rect class="cls-5" x="415" y="820" width="222.77" height="39.95"/><line class="cls-5" x1="433.44" y1="820" x2="433.44" y2="859.95"/><line class="cls-5" x1="451.87" y1="820" x2="451.87" y2="859.95"/><line class="cls-5" x1="470.31" y1="820" x2="470.31" y2="859.95"/><line class="cls-5" x1="488.75" y1="820" x2="488.75" y2="859.95"/><line class="cls-5" x1="507.18" y1="820" x2="507.18" y2="859.95"/><line class="cls-5" x1="525.62" y1="820" x2="525.62" y2="859.95"/><line class="cls-5" x1="544.05" y1="820" x2="544.05" y2="859.95"/><line class="cls-5" x1="562.49" y1="820" x2="562.49" y2="859.95"/><line class="cls-5" x1="580.93" y1="820" x2="580.93" y2="859.95"/><line class="cls-5" x1="599.36" y1="820" x2="599.36" y2="859.95"/><line class="cls-5" x1="617.8" y1="820" x2="617.8" y2="859.95"/><rect class="cls-5" x="415" y="543" width="222.77" height="39.95"/><line class="cls-5" x1="433.44" y1="543" x2="433.44" y2="582.95"/><line class="cls-5" x1="451.87" y1="543" x2="451.87" y2="582.95"/><line class="cls-5" x1="470.31" y1="543" x2="470.31" y2="582.95"/><line class="cls-5" x1="488.75" y1="543" x2="488.75" y2="582.95"/><line class="cls-5" x1="507.18" y1="543" x2="507.18" y2="582.95"/><line class="cls-5" x1="525.62" y1="543" x2="525.62" y2="582.95"/><line class="cls-5" x1="544.05" y1="543" x2="544.05" y2="582.95"/><line class="cls-5" x1="562.49" y1="543" x2="562.49" y2="582.95"/><line class="cls-5" x1="580.93" y1="543" x2="580.93" y2="582.95"/><line class="cls-5" x1="599.36" y1="543" x2="599.36" y2="582.95"/><line class="cls-5" x1="617.8" y1="543" x2="617.8" y2="582.95"/><rect class="cls-6" x="525.78" y="724.58" width="219.41" height="63.8"/><rect class="cls-7" x="551.96" y="724.58" width="26.45" height="63.8"/><rect x="598.82" y="724.58" width="26.45" height="63.8"/><rect class="cls-8" x="645.69" y="724.58" width="26.45" height="63.8"/><rect class="cls-9" x="692.55" y="724.58" width="26.45" height="63.8"/><rect class="cls-10" x="525.78" y="724.58" width="219.41" height="63.8"/><rect class="cls-6" x="525.78" y="651.58" width="219.41" height="63.8"/><rect class="cls-7" x="551.96" y="651.58" width="26.45" height="63.8"/><rect x="598.82" y="651.58" width="26.45" height="63.8"/><rect class="cls-8" x="645.69" y="651.58" width="26.45" height="63.8"/><rect class="cls-9" x="692.55" y="651.58" width="26.45" height="63.8"/><rect class="cls-10" x="525.78" y="651.58" width="219.41" height="63.8"/><line class="cls-11" x1="745.18" y1="683.48" x2="1006.5" y2="683.48"/><line class="cls-11" x1="745.18" y1="756.48" x2="1006.5" y2="756.48"/><line class="cls-11" x1="801.28" y1="723.38" x2="801.28" y2="646"/><line class="cls-11" x1="800.28" y1="443.47" x2="800.28" y2="358"/><line class="cls-11" x1="884.28" y1="793.38" x2="884.28" y2="718"/><line class="cls-11" x1="883.28" y1="503.38" x2="883.28" y2="428"/><line class="cls-12" x1="716.5" y1="642" x2="716.5" y2="579.47"/><path class="cls-13" d="M919,459.9H708.45a21.18,21.18,0,0,0-21.18,21.18V492"/><path class="cls-14" d="M834,411.9H684.45a21.18,21.18,0,0,0-21.18,21.18V492.5"/><circle class="cls-15" cx="883.43" cy="460.26" r="20.57"/><circle class="cls-15" cx="1006.43" cy="615.26" r="20.57"/><circle class="cls-15" cx="1006.43" cy="683.26" r="20.57"/><circle class="cls-15" cx="1006.43" cy="755.26" r="20.57"/><circle class="cls-15" cx="884.43" cy="756.26" r="20.57"/><circle class="cls-15" cx="800.43" cy="683.26" r="20.57"/><circle class="cls-15" cx="716.43" cy="610.26" r="20.57"/><circle class="cls-15" cx="451.43" cy="683.26" r="20.57"/><circle class="cls-15" cx="800.43" cy="412.26" r="20.57"/><line class="cls-16" x1="815.5" y1="398.5" x2="957.5" y2="277.5"/><line class="cls-16" x1="899.5" y1="447.5" x2="1043.5" y2="325.5"/><rect class="cls-17" x="952.71" y="218.1" width="63.34" height="63.34"/><text class="cls-18" transform="translate(966.97 264.52)">J6</text><rect class="cls-17" x="1037.71" y="269.1" width="63.34" height="63.34"/><text class="cls-18" transform="translate(1051.97 315.52)">J5</text><rect class="cls-17" x="1177.71" y="583.1" width="63.34" height="63.34"/><text class="cls-18" transform="translate(1183.59 629.52)">H3</text><rect class="cls-17" x="1177.71" y="653.1" width="63.34" height="63.34"/><text class="cls-18" transform="translate(1183.59 699.52)">H2</text><rect class="cls-17" x="1177.71" y="723.1" width="63.34" height="63.34"/><text class="cls-18" transform="translate(1183.59 769.52)">H1</text><line class="cls-16" x1="1027" y1="615.26" x2="1177" y2="615.26"/><line class="cls-16" x1="1027" y1="683.5" x2="1177" y2="683.5"/><line class="cls-16" x1="1027" y1="756.5" x2="1177" y2="756.5"/><line class="cls-19" x1="884.43" y1="776.83" x2="940" y2="969"/><line class="cls-19" x1="801.43" y1="703.83" x2="876" y2="969"/><rect class="cls-17" x="912.21" y="967.6" width="63.34" height="63.34"/><text class="cls-18" transform="translate(926.47 1014.02)">J2</text><circle class="cls-15" cx="82.43" cy="1024.26" r="20.57"/><text class="cls-20" transform="translate(124.52 1034.02)">Solder joint</text><rect class="cls-17" x="61.85" y="1059.16" width="40.84" height="40.84"/><text class="cls-21" transform="translate(66.57 1089.09)">A1</text><text class="cls-20" transform="translate(125.86 1089.02)">Joint name</text><rect class="cls-17" x="841.71" y="969.1" width="63.34" height="63.34"/><text class="cls-18" transform="translate(855.97 1015.52)">J3</text><line class="cls-16" x1="430.85" y1="683.26" x2="270" y2="698"/><line class="cls-16" x1="695.85" y1="610.26" x2="275.06" y2="642"/><rect class="cls-17" x="211.71" y="606.1" width="63.34" height="63.34"/><text class="cls-18" transform="translate(225.97 652.52)">J4</text><rect class="cls-17" x="211.71" y="678.1" width="63.34" height="63.34"/><text class="cls-18" transform="translate(225.97 724.52)">J1</text><text class="cls-22" transform="translate(587.99 117.32)">Top View</text><rect class="cls-23" x="30" y="986" width="280" height="132"/><path class="cls-11" d="M526.39,684.5H496a34.5,34.5,0,0,1,0-69h510.43"/><path class="cls-11" d="M461.83,655.19v86.48a20,20,0,0,0,20,20H526"/></svg>